<svg width="166" height="71" viewBox="0 0 166 71" fill="none" xmlns="http://www.w3.org/2000/svg">
<g clip-path="url(#clip0_75_200)">
<path d="M84.3555 51.6569C84.971 50.5152 85.808 49.6272 86.8708 48.993C87.9314 48.3587 89.1141 48.0427 90.4168 48.0427C91.3805 48.0427 92.3304 48.2526 93.2664 48.6724C94.2025 49.0922 94.9472 49.6503 95.5005 50.3445V43.2246H98.5761V63.0322H95.5005V60.8111C95.0002 61.5261 94.3109 62.1142 93.4278 62.5778C92.5448 63.0414 91.5327 63.2744 90.3914 63.2744C89.1072 63.2744 87.9337 62.9492 86.8731 62.2964C85.8126 61.646 84.9734 60.735 84.3578 59.5656C83.7422 58.3963 83.4355 57.0724 83.4355 55.5917C83.4355 54.1109 83.7422 52.7986 84.3578 51.6569H84.3555ZM94.8688 52.9946C94.4492 52.245 93.9005 51.6753 93.2226 51.2809C92.5448 50.8889 91.8139 50.6928 91.0277 50.6928C90.2415 50.6928 89.5107 50.8842 88.8328 51.2694C88.155 51.6523 87.6063 52.2151 87.1867 52.9554C86.7671 53.6958 86.5573 54.5745 86.5573 55.5917C86.5573 56.6088 86.7671 57.5014 87.1867 58.2671C87.6063 59.0352 88.1596 59.6187 88.8467 60.02C89.5337 60.4213 90.26 60.622 91.0277 60.622C91.7955 60.622 92.5425 60.4259 93.2226 60.0338C93.9005 59.6417 94.4492 59.0651 94.8688 58.3063C95.2884 57.5475 95.4982 56.6595 95.4982 55.6424C95.4982 54.6253 95.2884 53.7419 94.8688 52.9923V52.9946Z" fill="#8050F2"/>
<path d="M102.75 45.7685C102.377 45.3949 102.188 44.929 102.188 44.3777C102.188 43.8265 102.374 43.3606 102.75 42.9846C103.126 42.6087 103.589 42.4219 104.14 42.4219C104.691 42.4219 105.129 42.6087 105.505 42.9846C105.881 43.3583 106.068 43.8242 106.068 44.3777C106.068 44.9313 105.881 45.3949 105.505 45.7685C105.132 46.1421 104.675 46.3313 104.14 46.3313C103.605 46.3313 103.124 46.1444 102.75 45.7685ZM105.639 48.2848V63.0321H102.589V48.2848H105.639Z" fill="#8050F2"/>
<path d="M118.63 48.7253C119.513 49.1797 120.204 49.7471 120.702 50.4252V48.2848H123.778V63.2743C123.778 64.6304 123.492 65.839 122.923 66.9C122.351 67.9609 121.525 68.7958 120.446 69.4024C119.367 70.009 118.079 70.3135 116.58 70.3135C114.583 70.3135 112.923 69.8453 111.605 68.9088C110.284 67.9724 109.534 66.7016 109.357 65.094H112.379C112.61 65.8621 113.106 66.4825 113.864 66.9553C114.623 67.4281 115.526 67.6657 116.58 67.6657C117.811 67.6657 118.805 67.292 119.563 66.5424C120.322 65.7929 120.7 64.7042 120.7 63.2766V60.8133C120.184 61.5098 119.483 62.0934 118.6 62.5662C117.717 63.039 116.714 63.2766 115.589 63.2766C114.304 63.2766 113.131 62.9513 112.07 62.2986C111.01 61.6482 110.171 60.7372 109.555 59.5678C108.939 58.3985 108.633 57.0746 108.633 55.5939C108.633 54.1131 108.939 52.8008 109.555 51.6591C110.171 50.5174 111.008 49.6294 112.07 48.9952C113.131 48.3609 114.304 48.0449 115.589 48.0449C116.73 48.0449 117.742 48.2733 118.625 48.7276L118.63 48.7253ZM120.073 52.9945C119.653 52.2449 119.105 51.6752 118.427 51.2808C117.749 50.8887 117.018 50.6927 116.232 50.6927C115.446 50.6927 114.715 50.8841 114.037 51.2693C113.359 51.6522 112.81 52.2149 112.391 52.9553C111.971 53.6957 111.761 54.5744 111.761 55.5915C111.761 56.6087 111.971 57.5013 112.391 58.267C112.81 59.035 113.364 59.6186 114.051 60.0199C114.738 60.4212 115.464 60.6219 116.232 60.6219C117 60.6219 117.747 60.4258 118.427 60.0337C119.105 59.6416 119.653 59.065 120.073 58.3062C120.493 57.5474 120.702 56.6594 120.702 55.6423C120.702 54.6252 120.493 53.7418 120.073 52.9922V52.9945Z" fill="#8050F2"/>
<path d="M127.953 45.7685C127.58 45.3949 127.391 44.929 127.391 44.3777C127.391 43.8265 127.577 43.3606 127.953 42.9846C128.329 42.6087 128.792 42.4219 129.343 42.4219C129.894 42.4219 130.333 42.6087 130.708 42.9846C131.084 43.3583 131.271 43.8242 131.271 44.3777C131.271 44.9313 131.084 45.3949 130.708 45.7685C130.335 46.1421 129.878 46.3313 129.343 46.3313C128.809 46.3313 128.327 46.1444 127.953 45.7685ZM130.842 48.2848V63.0321H127.792V48.2848H130.842Z" fill="#8050F2"/>
<path d="M138.414 50.7734V58.9381C138.414 59.4917 138.543 59.8884 138.801 60.1282C139.06 60.3681 139.502 60.4904 140.125 60.4904H141.997V63.032H139.59C138.216 63.032 137.164 62.7114 136.433 62.068C135.703 61.4268 135.336 60.382 135.336 58.9358V50.7711H133.598V48.2824H135.336V44.6152H138.414V48.2824H141.999V50.7711H138.414V50.7734Z" fill="#8050F2"/>
<path d="M144.716 51.6571C145.331 50.5155 146.168 49.6275 147.231 48.9932C148.291 48.3589 149.465 48.043 150.749 48.043C151.909 48.043 152.921 48.2713 153.786 48.7257C154.65 49.18 155.342 49.7474 155.858 50.4255V48.2851H158.934V63.0324H155.858V60.8367C155.342 61.5332 154.636 62.1122 153.744 62.5758C152.852 63.0393 151.835 63.2723 150.694 63.2723C149.428 63.2723 148.268 62.9471 147.215 62.2944C146.163 61.644 145.329 60.7329 144.713 59.5636C144.098 58.3942 143.791 57.0703 143.791 55.5896C143.791 54.1089 144.098 52.7965 144.713 51.6548L144.716 51.6571ZM155.231 52.9949C154.812 52.2453 154.263 51.6756 153.585 51.2812C152.907 50.8891 152.176 50.693 151.39 50.693C150.604 50.693 149.873 50.8845 149.195 51.2697C148.517 51.6525 147.969 52.2153 147.549 52.9557C147.129 53.696 146.92 54.5748 146.92 55.5919C146.92 56.609 147.129 57.5016 147.549 58.2674C147.969 59.0354 148.522 59.6189 149.209 60.0202C149.896 60.4215 150.622 60.6222 151.39 60.6222C152.158 60.6222 152.905 60.4262 153.585 60.0341C154.263 59.642 154.812 59.0654 155.231 58.3066C155.651 57.5477 155.861 56.6598 155.861 55.6426C155.861 54.6255 155.651 53.7421 155.231 52.9926V52.9949Z" fill="#8050F2"/>
<path d="M165.999 43.2246V63.0322H162.949V43.2246H165.999Z" fill="#8050F2"/>
<path d="M78.14 25.1834H57.8396C58.0056 27.1877 58.7087 28.7607 59.9445 29.8955C61.1803 31.0325 62.702 31.5999 64.5049 31.5999C67.1102 31.5999 68.9662 30.4813 70.0682 28.2418H77.6374C76.835 30.9172 75.2995 33.1129 73.0262 34.8358C70.753 36.5587 67.9632 37.419 64.6571 37.419C61.9826 37.419 59.5872 36.8263 57.4661 35.6385C55.3426 34.453 53.6896 32.7739 52.5045 30.5989C51.3171 28.4263 50.7246 25.9192 50.7246 23.0777C50.7246 20.2362 51.3079 17.6806 52.4791 15.5057C53.6481 13.333 55.2873 11.6632 57.39 10.4915C59.4949 9.32216 61.9181 8.73633 64.6571 8.73633C67.3961 8.73633 69.6601 9.30601 71.749 10.4408C73.8378 11.5778 75.4586 13.19 76.6114 15.2797C77.7642 17.3693 78.3406 19.768 78.3406 22.4734C78.3406 23.4767 78.2737 24.3785 78.14 25.1811V25.1834ZM71.0711 20.4691C71.0366 18.6632 70.3864 17.2194 69.116 16.133C67.8457 15.0467 66.2917 14.5024 64.4542 14.5024C62.7158 14.5024 61.2541 15.0283 60.069 16.0823C58.8817 17.134 58.1554 18.5986 57.888 20.4691H71.0711Z" fill="white"/>
<path d="M90.4673 0.3125V37.416H83.4492V0.3125H90.4673Z" fill="white"/>
<path d="M104.403 9.23828V37.4159H97.3848V9.23828H104.403Z" fill="white"/>
<path d="M137.532 9.28711V37.4163H130.465V33.5553C129.564 34.7593 128.385 35.7049 126.931 36.3876C125.478 37.0726 123.899 37.4163 122.195 37.4163C120.023 37.4163 118.103 36.9573 116.431 36.037C114.76 35.1191 113.45 33.7652 112.498 31.9754C111.546 30.1879 111.068 28.0568 111.068 25.582V9.28711H118.084V24.5787C118.084 26.786 118.635 28.4812 119.74 29.669C120.842 30.8568 122.345 31.4495 124.249 31.4495C126.154 31.4495 127.708 30.8568 128.81 29.669C129.912 28.4835 130.465 26.786 130.465 24.5787V9.28711H137.532Z" fill="white"/>
<path d="M148.961 36.1874C147.155 35.3686 145.728 34.2569 144.674 32.8523C143.623 31.4477 143.047 29.8932 142.945 28.1887H150.012C150.146 29.2589 150.671 30.1446 151.591 30.8457C152.509 31.5469 153.655 31.8974 155.024 31.8974C156.394 31.8974 157.406 31.6299 158.157 31.0948C158.909 30.5597 159.285 29.8747 159.285 29.0398C159.285 28.138 158.826 27.4599 157.906 27.0101C156.986 26.5581 155.524 26.0668 153.521 25.5317C151.448 25.0312 149.754 24.5123 148.433 23.9772C147.111 23.4421 145.977 22.6233 145.025 21.5208C144.073 20.4184 143.595 18.9307 143.595 17.0579C143.595 15.5218 144.038 14.1172 144.923 12.8464C145.809 11.5755 147.079 10.5745 148.732 9.8388C150.388 9.10305 152.334 8.73633 154.572 8.73633C157.881 8.73633 160.521 9.56433 162.492 11.218C164.463 12.8717 165.549 15.1044 165.75 17.9113H159.033C158.934 16.8088 158.473 15.9301 157.655 15.2797C156.836 14.6292 155.741 14.3017 154.372 14.3017C153.101 14.3017 152.124 14.537 151.439 15.0029C150.754 15.4711 150.413 16.1238 150.413 16.9587C150.413 17.8951 150.881 18.6055 151.817 19.0899C152.751 19.5742 154.206 20.0678 156.177 20.5683C158.18 21.0688 159.836 21.5877 161.138 22.1228C162.441 22.6579 163.569 23.4859 164.521 24.6045C165.473 25.7255 165.966 27.2039 165.999 29.0421C165.999 30.6474 165.556 32.0843 164.671 33.3551C163.785 34.6259 162.515 35.62 160.862 36.3373C159.209 37.0546 157.279 37.4167 155.073 37.4167C152.866 37.4167 150.761 37.0062 148.958 36.1874H148.961Z" fill="white"/>
<path d="M45.8596 30.3984H38.8438V37.4169H45.8596V30.3984Z" fill="#8050F2"/>
<path d="M45.8598 21.121C45.8598 17.3777 44.8154 14.46 42.7266 12.3727C40.6377 10.2831 37.8895 9.23828 34.4819 9.23828C32.4761 9.23828 30.6132 9.72263 28.8932 10.6913C27.171 11.66 25.8614 12.947 24.9599 14.5523C24.0239 12.8478 22.7051 11.5355 21.0013 10.6175C19.2975 9.69957 17.3585 9.23828 15.1867 9.23828C13.4829 9.23828 11.9197 9.57271 10.4995 10.2416C9.07928 10.9104 7.91728 11.8307 7.01581 13.0001V9.24059H0V37.4182H7.01811V22.0758C7.01811 19.9032 7.57606 18.2403 8.69656 17.087C9.81475 15.9338 11.3433 15.3572 13.2823 15.3572C15.2213 15.3572 16.6899 15.9338 17.792 17.087C18.894 18.2403 19.4451 19.9032 19.4451 22.0758V37.4182H26.4609V22.0758C26.4609 19.9032 27.0211 18.2403 28.1393 17.087C29.2575 15.9338 30.7699 15.3572 32.6743 15.3572C34.5787 15.3572 36.0819 15.9338 37.184 17.087C38.2861 18.2403 38.8371 19.9032 38.8371 22.0758V25.1849H45.8529V21.1233L45.8598 21.121Z" fill="white"/>
</g>
<defs>
<clipPath id="clip0_75_200">
<rect width="166" height="70" fill="white" transform="translate(0 0.3125)"/>
</clipPath>
</defs>
</svg>
