<svg width="54" height="54" viewBox="0 0 54 54" fill="none" xmlns="http://www.w3.org/2000/svg">
<path d="M31.7842 6.75H38.1411C39.5076 6.75 40.809 7.34175 41.7168 8.37601L48.2915 15.8659C49.8173 17.604 49.9081 20.1949 48.5079 22.0382L30.7921 45.3592C28.877 47.8803 25.123 47.8803 23.2079 45.3592L5.49214 22.0382C4.09186 20.1949 4.18266 17.604 5.70846 15.8659L12.2832 8.37601C13.1911 7.34175 14.4924 6.75 15.8589 6.75H22.7474M31.7842 6.75L36.5684 18.8614M31.7842 6.75H22.7474M36.5684 18.8614H48.529M36.5684 18.8614L27 46.7177L17.4316 18.8614M36.5684 18.8614H17.4316M22.7474 6.75L17.4316 18.8614M5.47102 18.8614H17.4316" stroke="white" stroke-width="1.5" stroke-linecap="round" stroke-linejoin="round"/>
</svg>
