<svg width="101" height="100" viewBox="0 0 101 100" fill="none" xmlns="http://www.w3.org/2000/svg">
<path opacity="0.4" fill-rule="evenodd" clip-rule="evenodd" d="M50.5 5.20825C52.2259 5.20825 53.625 6.60736 53.625 8.33325V20.8333C53.625 22.5591 52.2259 23.9583 50.5 23.9583C48.7741 23.9583 47.375 22.5591 47.375 20.8333V8.33325C47.375 6.60736 48.7741 5.20825 50.5 5.20825Z" fill="#8050F2"/>
<path opacity="0.4" fill-rule="evenodd" clip-rule="evenodd" d="M50.5 76.0415C52.2259 76.0415 53.625 77.4406 53.625 79.1665V91.6665C53.625 93.3924 52.2259 94.7915 50.5 94.7915C48.7741 94.7915 47.375 93.3924 47.375 91.6665V79.1665C47.375 77.4406 48.7741 76.0415 50.5 76.0415Z" fill="#8050F2"/>
<path opacity="0.4" fill-rule="evenodd" clip-rule="evenodd" d="M18.8271 18.3264C20.0475 17.106 22.0262 17.106 23.2466 18.3264L32.0854 27.1653C33.3058 28.3856 33.3058 30.3643 32.0854 31.5847C30.865 32.8051 28.8864 32.8051 27.666 31.5847L18.8271 22.7458C17.6068 21.5255 17.6068 19.5468 18.8271 18.3264Z" fill="#8050F2"/>
<path opacity="0.4" fill-rule="evenodd" clip-rule="evenodd" d="M68.9145 68.4141C70.1349 67.1937 72.1136 67.1937 73.334 68.4141L82.1728 77.2529C83.3932 78.4733 83.3932 80.4519 82.1728 81.6723C80.9524 82.8927 78.9738 82.8927 77.7534 81.6723L68.9145 72.8335C67.6942 71.6131 67.6942 69.6345 68.9145 68.4141Z" fill="#8050F2"/>
<path opacity="0.4" fill-rule="evenodd" clip-rule="evenodd" d="M95.2917 50C95.2917 51.7259 93.8926 53.125 92.1667 53.125L79.6667 53.125C77.9409 53.125 76.5417 51.7259 76.5417 50C76.5417 48.2741 77.9409 46.875 79.6667 46.875L92.1667 46.875C93.8926 46.875 95.2917 48.2741 95.2917 50Z" fill="#8050F2"/>
<path opacity="0.4" fill-rule="evenodd" clip-rule="evenodd" d="M24.4584 50C24.4584 51.7259 23.0593 53.125 21.3334 53.125L8.83337 53.125C7.10748 53.125 5.70837 51.7259 5.70837 50C5.70837 48.2741 7.10748 46.875 8.83337 46.875L21.3334 46.875C23.0593 46.875 24.4584 48.2741 24.4584 50Z" fill="#8050F2"/>
<path fill-rule="evenodd" clip-rule="evenodd" d="M82.1725 18.3269C83.3929 19.5473 83.3929 21.5259 82.1725 22.7463L73.3336 31.5851C72.1133 32.8055 70.1346 32.8055 68.9142 31.5851C67.6938 30.3648 67.6938 28.3861 68.9142 27.1657L77.7531 18.3269C78.9734 17.1065 80.9521 17.1065 82.1725 18.3269Z" fill="#8050F2"/>
<path opacity="0.4" fill-rule="evenodd" clip-rule="evenodd" d="M32.0859 68.4145C33.3063 69.6349 33.3063 71.6136 32.0859 72.834L23.2471 81.6728C22.0267 82.8932 20.0481 82.8932 18.8277 81.6728C17.6073 80.4524 17.6073 78.4738 18.8277 77.2534L27.6665 68.4145C28.8869 67.1942 30.8655 67.1942 32.0859 68.4145Z" fill="#8050F2"/>
</svg>
