<svg width="138" height="58" viewBox="0 0 138 58" fill="none" xmlns="http://www.w3.org/2000/svg">
<g clip-path="url(#clip0_2142_1620)">
<path d="M70.1271 42.5416C70.6388 41.5956 71.3346 40.8598 72.2181 40.3343C73.0998 39.8088 74.0831 39.547 75.166 39.547C75.9671 39.547 76.7568 39.7209 77.535 40.0687C78.3131 40.4165 78.9322 40.879 79.3922 41.4542V35.5548H81.9491V51.9668H79.3922V50.1265C78.9763 50.7189 78.4032 51.2062 77.6691 51.5903C76.9351 51.9744 76.0936 52.1675 75.1449 52.1675C74.0773 52.1675 73.1017 51.898 72.22 51.3572C71.3384 50.8183 70.6407 50.0634 70.129 49.0945C69.6172 48.1256 69.3623 47.0287 69.3623 45.8018C69.3623 44.5749 69.6172 43.4875 70.129 42.5416H70.1271ZM78.8671 43.65C78.5182 43.0289 78.0621 42.5569 77.4986 42.2301C76.9351 41.9052 76.3275 41.7427 75.6739 41.7427C75.0203 41.7427 74.4127 41.9014 73.8492 42.2205C73.2857 42.5377 72.8296 43.004 72.4807 43.6175C72.1319 44.2309 71.9575 44.959 71.9575 45.8018C71.9575 46.6446 72.1319 47.3841 72.4807 48.0186C72.8296 48.655 73.2895 49.1385 73.8607 49.471C74.4319 49.8035 75.0356 49.9698 75.6739 49.9698C76.3121 49.9698 76.9331 49.8073 77.4986 49.4825C78.0621 49.1576 78.5182 48.6798 78.8671 48.0511C79.2159 47.4224 79.3903 46.6866 79.3903 45.8438C79.3903 45.0011 79.2159 44.2691 78.8671 43.6481V43.65Z" fill="#8050F2"/>
<path d="M85.4182 37.6627C85.1077 37.3531 84.9506 36.9671 84.9506 36.5103C84.9506 36.0536 85.1058 35.6676 85.4182 35.3561C85.7306 35.0446 86.1159 34.8898 86.574 34.8898C87.0321 34.8898 87.3962 35.0446 87.7086 35.3561C88.0211 35.6656 88.1763 36.0517 88.1763 36.5103C88.1763 36.969 88.0211 37.3531 87.7086 37.6627C87.3981 37.9723 87.0186 38.129 86.574 38.129C86.1293 38.129 85.7287 37.9742 85.4182 37.6627ZM87.8198 39.7476V51.9668H85.2841V39.7476H87.8198Z" fill="#8050F2"/>
<path d="M98.6202 40.1126C99.3543 40.4891 99.9293 40.9592 100.343 41.521V39.7476H102.9V52.1674C102.9 53.2911 102.662 54.2925 102.189 55.1716C101.714 56.0506 101.028 56.7424 100.131 57.245C99.2336 57.7476 98.1622 57.9999 96.9163 57.9999C95.2565 57.9999 93.8765 57.612 92.7802 56.8361C91.6819 56.0602 91.059 55.0072 90.9114 53.6752H93.4242C93.6158 54.3116 94.0279 54.8257 94.6585 55.2174C95.2891 55.6092 96.0404 55.806 96.9163 55.806C97.9398 55.806 98.7659 55.4964 99.3965 54.8754C100.027 54.2543 100.341 53.3523 100.341 52.1693V50.1283C99.9121 50.7055 99.3294 51.189 98.5953 51.5807C97.8612 51.9725 97.0275 52.1693 96.0922 52.1693C95.0246 52.1693 94.049 51.8999 93.1673 51.359C92.2857 50.8201 91.588 50.0653 91.0762 49.0964C90.5645 48.1275 90.3096 47.0305 90.3096 45.8037C90.3096 44.5768 90.5645 43.4894 91.0762 42.5434C91.588 41.5975 92.2837 40.8617 93.1673 40.3362C94.049 39.8106 95.0246 39.5488 96.0922 39.5488C97.0409 39.5488 97.8823 39.738 98.6164 40.1145L98.6202 40.1126ZM99.8201 43.6499C99.4712 43.0288 99.0151 42.5568 98.4516 42.23C97.8881 41.9051 97.2805 41.7427 96.6269 41.7427C95.9733 41.7427 95.3657 41.9013 94.8022 42.2205C94.2387 42.5377 93.7826 43.004 93.4337 43.6174C93.0849 44.2309 92.9105 44.959 92.9105 45.8017C92.9105 46.6445 93.0849 47.3841 93.4337 48.0185C93.7826 48.6549 94.2426 49.1384 94.8137 49.4709C95.3849 49.8035 95.9887 49.9697 96.6269 49.9697C97.2652 49.9697 97.8861 49.8073 98.4516 49.4824C99.0151 49.1575 99.4712 48.6798 99.8201 48.051C100.169 47.4223 100.343 46.6866 100.343 45.8438C100.343 45.001 100.169 44.2691 99.8201 43.648V43.6499Z" fill="#8050F2"/>
<path d="M106.371 37.6627C106.061 37.3531 105.904 36.9671 105.904 36.5103C105.904 36.0536 106.059 35.6676 106.371 35.3561C106.684 35.0446 107.069 34.8898 107.527 34.8898C107.985 34.8898 108.349 35.0446 108.662 35.3561C108.974 35.6656 109.129 36.0517 109.129 36.5103C109.129 36.969 108.974 37.3531 108.662 37.6627C108.351 37.9723 107.972 38.129 107.527 38.129C107.082 38.129 106.682 37.9742 106.371 37.6627ZM108.773 39.7476V51.9668H106.237V39.7476H108.773Z" fill="#8050F2"/>
<path d="M115.067 41.8096V48.5747C115.067 49.0333 115.174 49.362 115.389 49.5608C115.604 49.7595 115.972 49.8608 116.489 49.8608H118.046V51.9668H116.045C114.902 51.9668 114.028 51.7012 113.421 51.168C112.813 50.6367 112.508 49.771 112.508 48.5728V41.8077H111.063V39.7457H112.508V36.7072H115.067V39.7457H118.048V41.8077H115.067V41.8096Z" fill="#8050F2"/>
<path d="M120.305 42.5416C120.817 41.5956 121.513 40.8599 122.397 40.3343C123.278 39.8088 124.254 39.547 125.321 39.547C126.285 39.547 127.127 39.7362 127.846 40.1127C128.564 40.4891 129.139 40.9593 129.569 41.5211V39.7477H132.126V51.9668H129.569V50.1475C129.139 50.7247 128.553 51.2043 127.811 51.5884C127.069 51.9726 126.224 52.1656 125.275 52.1656C124.223 52.1656 123.259 51.8961 122.383 51.3553C121.509 50.8164 120.815 50.0615 120.304 49.0926C119.792 48.1237 119.537 47.0268 119.537 45.7999C119.537 44.573 119.792 43.4856 120.304 42.5397L120.305 42.5416ZM129.047 43.65C128.699 43.0289 128.242 42.5569 127.679 42.2301C127.115 41.9052 126.508 41.7428 125.854 41.7428C125.201 41.7428 124.593 41.9014 124.03 42.2205C123.466 42.5378 123.01 43.0041 122.661 43.6175C122.312 44.231 122.138 44.9591 122.138 45.8018C122.138 46.6446 122.312 47.3842 122.661 48.0186C123.01 48.655 123.47 49.1385 124.041 49.471C124.612 49.8035 125.216 49.9698 125.854 49.9698C126.492 49.9698 127.113 49.8074 127.679 49.4825C128.242 49.1576 128.699 48.6798 129.047 48.0511C129.396 47.4224 129.571 46.6866 129.571 45.8439C129.571 45.0011 129.396 44.2692 129.047 43.6481V43.65Z" fill="#8050F2"/>
<path d="M138 35.5548V51.9668H135.464V35.5548H138Z" fill="#8050F2"/>
<path d="M64.9597 20.6067H48.0834C48.2214 22.2674 48.806 23.5708 49.8333 24.511C50.8607 25.4531 52.1257 25.9232 53.6245 25.9232C55.7903 25.9232 57.3332 24.9964 58.2494 23.1408H64.5418C63.8748 25.3576 62.5983 27.1769 60.7085 28.6044C58.8187 30.032 56.4995 30.7448 53.751 30.7448C51.5277 30.7448 49.5362 30.2537 47.7729 29.2695C46.0077 28.2872 44.6334 26.896 43.6482 25.0939C42.6612 23.2937 42.1686 21.2164 42.1686 18.862C42.1686 16.5076 42.6535 14.3901 43.6272 12.588C44.5989 10.7878 45.9617 9.40423 47.7097 8.43343C49.4596 7.46453 51.474 6.97913 53.751 6.97913C56.028 6.97913 57.9102 7.45115 59.6467 8.39138C61.3832 9.33352 62.7306 10.6693 63.6889 12.4007C64.6472 14.1321 65.1264 16.1196 65.1264 18.3613C65.1264 19.1926 65.0708 19.9398 64.9597 20.6048V20.6067ZM59.0832 16.7006C59.0544 15.2042 58.5139 14.0079 57.4578 13.1078C56.4017 12.2077 55.1099 11.7567 53.5823 11.7567C52.1372 11.7567 50.922 12.1924 49.9368 13.0658C48.9497 13.9372 48.346 15.1507 48.1237 16.7006H59.0832Z" fill="white"/>
<path d="M75.2081 0V30.7429H69.3738V0H75.2081Z" fill="white"/>
<path d="M86.7925 7.39575V30.7429H80.9581V7.39575H86.7925Z" fill="white"/>
<path d="M114.333 7.43579V30.7428H108.458V27.5437C107.709 28.5413 106.73 29.3248 105.52 29.8905C104.313 30.4581 103 30.7428 101.583 30.7428C99.7778 30.7428 98.1812 30.3625 96.7917 29.6C95.4021 28.8394 94.3134 27.7176 93.5218 26.2347C92.7302 24.7536 92.3335 22.9878 92.3335 20.9373V7.43579H98.1659V20.106C98.1659 21.9348 98.624 23.3394 99.5421 24.3236C100.458 25.3078 101.708 25.799 103.291 25.799C104.874 25.799 106.166 25.3078 107.082 24.3236C107.998 23.3414 108.458 21.9348 108.458 20.106V7.43579H114.333Z" fill="white"/>
<path d="M123.834 29.7243C122.333 29.0459 121.147 28.1248 120.271 26.9609C119.397 25.7971 118.918 24.5091 118.833 23.0968H124.708C124.819 23.9835 125.256 24.7174 126.021 25.2983C126.784 25.8793 127.736 26.1698 128.875 26.1698C130.013 26.1698 130.855 25.9481 131.48 25.5047C132.104 25.0614 132.417 24.4938 132.417 23.802C132.417 23.0548 132.035 22.4929 131.271 22.1203C130.506 21.7457 129.291 21.3387 127.625 20.8953C125.902 20.4806 124.493 20.0506 123.395 19.6073C122.297 19.1639 121.354 18.4855 120.562 17.572C119.771 16.6585 119.374 15.4259 119.374 13.8741C119.374 12.6014 119.742 11.4376 120.478 10.3846C121.214 9.33161 122.27 8.50222 123.644 7.8926C125.02 7.28298 126.638 6.97913 128.499 6.97913C131.25 6.97913 133.444 7.66519 135.083 9.0354C136.722 10.4056 137.624 12.2555 137.791 14.5812H132.208C132.125 13.6678 131.742 12.9397 131.062 12.4007C130.381 11.8618 129.471 11.5905 128.332 11.5905C127.276 11.5905 126.464 11.7854 125.894 12.1714C125.325 12.5594 125.041 13.1002 125.041 13.792C125.041 14.5679 125.431 15.1565 126.209 15.5578C126.985 15.9591 128.194 16.3681 129.833 16.7827C131.499 17.1974 132.875 17.6274 133.958 18.0708C135.041 18.5141 135.978 19.2002 136.77 20.1271C137.561 21.0558 137.971 22.2808 137.998 23.8039C137.998 25.134 137.63 26.3246 136.894 27.3775C136.158 28.4305 135.102 29.2542 133.728 29.8485C132.354 30.4428 130.749 30.7429 128.915 30.7429C127.081 30.7429 125.331 30.4027 123.832 29.7243H123.834Z" fill="white"/>
<path d="M38.1244 24.9276H32.292V30.7429H38.1244V24.9276Z" fill="#8050F2"/>
<path d="M38.1244 17.2414C38.1244 14.1398 37.2562 11.7223 35.5197 9.99285C33.7832 8.26145 31.4985 7.39575 28.6657 7.39575C26.9982 7.39575 25.4495 7.79707 24.0197 8.59971C22.5879 9.40234 21.4993 10.4687 20.7498 11.7988C19.9717 10.3865 18.8753 9.29915 17.4589 8.53855C16.0425 7.77796 14.4306 7.39575 12.6251 7.39575C11.2087 7.39575 9.90917 7.67285 8.7285 8.22705C7.54783 8.78125 6.58183 9.54376 5.83242 10.5127V7.39766H0V30.7448H5.83433V18.0326C5.83433 16.2324 6.29817 14.8545 7.22967 13.899C8.15925 12.9435 9.43 12.4657 11.0419 12.4657C12.6538 12.4657 13.8748 12.9435 14.7909 13.899C15.7071 14.8545 16.1652 16.2324 16.1652 18.0326V30.7448H21.9976V18.0326C21.9976 16.2324 22.4633 14.8545 23.3929 13.899C24.3225 12.9435 25.5798 12.4657 27.163 12.4657C28.7462 12.4657 29.9958 12.9435 30.912 13.899C31.8282 14.8545 32.2863 16.2324 32.2863 18.0326V20.6087H38.1187V17.2433L38.1244 17.2414Z" fill="white"/>
</g>
<defs>
<clipPath id="clip0_2142_1620">
<rect width="138" height="58" fill="white"/>
</clipPath>
</defs>
</svg>
